<?xml version="1.0" standalone="no"?>
<!DOCTYPE svg PUBLIC "-//W3C//DTD SVG 20010904//EN"
 "http://www.w3.org/TR/2001/REC-SVG-20010904/DTD/svg10.dtd">
<svg version="1.0" xmlns="http://www.w3.org/2000/svg"
 width="62.000000pt" height="78.000000pt" viewBox="0 0 62.000000 78.000000"
 preserveAspectRatio="xMidYMid meet">
<metadata>
Created by potrace 1.15, written by Peter Selinger 2001-2017
</metadata>
<g transform="translate(0.000000,78.000000) scale(0.100000,-0.100000)"
fill="#000000" stroke="none">
<path d="M530 673 c-37 -12 -73 -44 -211 -184 l-166 -170 -49 6 c-42 6 -52 4
-68 -14 -23 -25 -18 -32 37 -48 42 -13 42 -13 75 23 19 19 36 33 40 30 3 -4
-16 -29 -43 -56 -27 -27 -46 -53 -42 -56 4 -4 15 0 26 10 17 16 19 15 24 -11
3 -15 11 -41 17 -57 l11 -29 23 23 c21 19 24 29 20 73 l-5 52 91 80 c166 145
284 292 268 334 -2 4 -23 2 -48 -6z"/>
<path d="M262 627 c-22 -23 -24 -23 -102 -12 l-79 12 -33 -34 c-17 -18 -30
-34 -27 -36 2 -2 59 -22 125 -45 l122 -42 56 57 55 58 -30 3 c-16 2 -27 7 -24
11 2 5 -6 18 -19 30 l-22 21 -22 -23z"/>
<path d="M422 427 l-54 -55 43 -123 c23 -68 44 -126 46 -128 2 -3 18 9 35 26
l31 31 -10 78 c-10 77 -10 80 14 105 l24 26 -28 24 c-15 13 -33 34 -38 47 -10
22 -11 21 -63 -31z"/>
</g>
</svg>
